<svg width="45" height="45" viewBox="0 0 45 45" fill="none" xmlns="http://www.w3.org/2000/svg">
<path d="M14.5575 9.24626C15.6375 8.59577 16.8075 8.06143 18 7.68973V4.71606C18 2.16056 19.9575 0.0696954 22.4325 0C25.0425 0.0696954 27 2.16056 27 4.71606V7.68973C28.1925 8.08467 29.3625 8.59577 30.4425 9.24626L26.8425 14.1714H18.1575L14.5575 9.24626ZM38.25 23.3015C38.25 24.4631 38.1375 25.5085 37.935 26.5539L32.2425 24.7419L29.565 16.239L33.165 11.3371C34.1325 12.2664 34.9875 13.3118 35.73 14.4734C37.5075 14.3108 39.2175 14.5896 40.7475 15.3795C43.065 16.6107 44.64 18.9571 45 21.6288L38.25 22.4652V23.3015ZM6.75 23.3015C6.75 23.0227 6.75 22.7439 6.75 22.4884L0 21.6288C0.36 18.9571 1.935 16.6107 4.2525 15.3795C5.7825 14.5896 7.515 14.3108 9.18 14.6128C9.9225 13.428 10.7775 12.3361 11.79 11.3836L15.435 16.2158L12.7575 24.7419L7.065 26.5539C6.8625 25.5085 6.75 24.4631 6.75 23.3015ZM18.54 17.6562H26.46L28.9125 25.4621L22.5 30.271L16.0875 25.4621L18.54 17.6562ZM13.7925 28.064L20.8125 33.3144V39.4708C19.53 39.3314 18.2925 39.0294 17.145 38.588L14.3775 45C11.9925 43.9081 10.2825 41.6546 9.8325 39.0062C9.5175 37.2406 9.7875 35.475 10.5525 33.8952C9.54 32.6871 8.7075 31.3397 8.0775 29.8529L13.7925 28.064ZM31.2075 28.064L36.9225 29.8529C36.2925 31.3397 35.46 32.6871 34.4475 33.8952C35.2125 35.475 35.4825 37.2406 35.19 39.0062C34.7175 41.6546 33.0075 43.9081 30.6225 45L27.8775 38.588C26.685 39.0294 25.4925 39.4244 24.1875 39.5638V33.3144L31.2075 28.064Z" fill="#BEFFF7"/>
</svg>
