<svg width="35" height="40" viewBox="0 0 35 40" fill="none" xmlns="http://www.w3.org/2000/svg">
<g id="Frame">
<path id="Vector" d="M17.5 23.3333C20.7171 23.3333 23.3333 20.3433 23.3333 16.6667C23.3333 12.99 20.7171 10 17.5 10C14.2829 10 11.6667 12.99 11.6667 16.6667C11.6667 20.3433 14.2829 23.3333 17.5 23.3333ZM17.5 13.3333C19.1085 13.3333 20.4167 14.8283 20.4167 16.6667C20.4167 18.505 19.1085 20 17.5 20C15.8914 20 14.5833 18.505 14.5833 16.6667C14.5833 14.8283 15.8914 13.3333 17.5 13.3333Z" fill="#BEFFF7"/>
<path id="Vector_2" d="M16.6542 36.3563C16.901 36.5578 17.1967 36.6661 17.5 36.6661C17.8033 36.6661 18.099 36.5578 18.3458 36.3563C18.7892 35.998 29.2089 27.3997 29.1667 16.6663C29.1667 9.31467 23.9327 3.33301 17.5 3.33301C11.0673 3.33301 5.83332 9.31467 5.83332 16.658C5.79103 27.3997 16.2108 35.998 16.6542 36.3563ZM17.5 6.66634C22.3256 6.66634 26.25 11.1513 26.25 16.6747C26.2806 24.0713 19.8508 30.713 17.5 32.8913C15.1506 30.7113 8.71936 24.068 8.74999 16.6663C8.74999 11.1513 12.6744 6.66634 17.5 6.66634Z" fill="#BEFFF7"/>
</g>
</svg>
