<svg width="35" height="35" viewBox="0 0 35 35" fill="none" xmlns="http://www.w3.org/2000/svg">
<g id="Frame">
<path id="Vector" d="M29.1667 5.83301H5.83332C4.22478 5.83301 2.91666 7.14113 2.91666 8.74967V26.2497C2.91666 27.8582 4.22478 29.1663 5.83332 29.1663H29.1667C30.7752 29.1663 32.0833 27.8582 32.0833 26.2497V8.74967C32.0833 7.14113 30.7752 5.83301 29.1667 5.83301ZM29.1667 8.74967V9.49488L17.5 18.5701L5.83332 9.49634V8.74967H29.1667ZM5.83332 26.2497V13.1888L16.6046 21.567C16.8599 21.7676 17.1753 21.8766 17.5 21.8766C17.8247 21.8766 18.14 21.7676 18.3954 21.567L29.1667 13.1888L29.1696 26.2497H5.83332Z" fill="#BEFFF7"/>
</g>
</svg>
