<svg width="35" height="35" viewBox="0 0 35 35" fill="none" xmlns="http://www.w3.org/2000/svg">
<g id="Frame">
<path id="Vector" d="M17.4986 10.7578C15.7101 10.7578 13.9949 11.4683 12.7303 12.7329C11.4657 13.9975 10.7552 15.7127 10.7552 17.5011C10.7552 19.2896 11.4657 21.0048 12.7303 22.2694C13.9949 23.534 15.7101 24.2445 17.4986 24.2445C19.287 24.2445 21.0022 23.534 22.2668 22.2694C23.5314 21.0048 24.2419 19.2896 24.2419 17.5011C24.2419 15.7127 23.5314 13.9975 22.2668 12.7329C21.0022 11.4683 19.287 10.7578 17.4986 10.7578ZM17.4986 21.8805C16.3367 21.8805 15.2224 21.419 14.4008 20.5974C13.5793 19.7758 13.1177 18.6616 13.1177 17.4997C13.1177 16.3378 13.5793 15.2235 14.4008 14.402C15.2224 13.5804 16.3367 13.1189 17.4986 13.1189C18.6604 13.1189 19.7747 13.5804 20.5963 14.402C21.4178 15.2235 21.8794 16.3378 21.8794 17.4997C21.8794 18.6616 21.4178 19.7758 20.5963 20.5974C19.7747 21.419 18.6604 21.8805 17.4986 21.8805Z" fill="#BEFFF7"/>
<path id="Vector_2" d="M24.5088 12.0826C25.377 12.0826 26.0808 11.3788 26.0808 10.5106C26.0808 9.64232 25.377 8.93848 24.5088 8.93848C23.6405 8.93848 22.9367 9.64232 22.9367 10.5106C22.9367 11.3788 23.6405 12.0826 24.5088 12.0826Z" fill="#BEFFF7"/>
<path id="Vector_3" d="M29.944 8.91142C29.6064 8.0396 29.0905 7.24787 28.4292 6.58692C27.768 5.92597 26.9761 5.41036 26.1042 5.07309C25.0838 4.69006 24.0059 4.48296 22.9163 4.46059C21.5119 4.39934 21.0671 4.38184 17.5058 4.38184C13.9446 4.38184 13.4881 4.38184 12.0954 4.46059C11.0066 4.48181 9.92945 4.68896 8.91043 5.07309C8.03825 5.40996 7.24613 5.92544 6.58488 6.58644C5.92362 7.24744 5.40785 8.03937 5.07064 8.91142C4.68754 9.93169 4.48091 11.0097 4.4596 12.0993C4.39689 13.5023 4.37793 13.947 4.37793 17.5098C4.37793 21.071 4.37793 21.5245 4.4596 22.9202C4.48147 24.011 4.6871 25.0873 5.07064 26.1095C5.40879 26.9813 5.92507 27.7729 6.58648 28.4338C7.24789 29.0947 8.0399 29.6104 8.91189 29.9479C9.92898 30.3463 11.0066 30.5682 12.0983 30.6041C13.5027 30.6654 13.9475 30.6843 17.5088 30.6843C21.07 30.6843 21.5265 30.6843 22.9192 30.6041C24.0087 30.582 25.0866 30.3754 26.1071 29.9931C26.9788 29.655 27.7705 29.139 28.4316 28.4778C29.0928 27.8167 29.6088 27.025 29.9469 26.1533C30.3304 25.1325 30.5361 24.0562 30.5579 22.9654C30.6206 21.5625 30.6396 21.1177 30.6396 17.555C30.6396 13.9923 30.6396 13.5402 30.5579 12.1445C30.541 11.0395 30.3332 9.94574 29.944 8.91142ZM28.1677 22.8123C28.1583 23.6527 28.0049 24.4853 27.7142 25.2739C27.4952 25.841 27.1599 26.356 26.7299 26.7857C26.2999 27.2155 25.7847 27.5505 25.2175 27.7691C24.4376 28.0585 23.6139 28.2119 22.7821 28.2227C21.3967 28.2868 21.0058 28.3029 17.4533 28.3029C13.8979 28.3029 13.5348 28.3029 12.1231 28.2227C11.2918 28.2125 10.4684 28.0591 9.68918 27.7691C9.11997 27.5518 8.60272 27.2174 8.17089 26.7876C7.73906 26.3578 7.40227 25.8421 7.1823 25.2739C6.89566 24.4938 6.74234 23.671 6.72876 22.84C6.66605 21.4545 6.65147 21.0637 6.65147 17.5112C6.65147 13.9573 6.65147 13.5941 6.72876 12.181C6.73819 11.341 6.89159 10.5089 7.1823 9.72079C7.6271 8.57017 8.53855 7.66454 9.68918 7.22413C10.4688 6.93558 11.2919 6.7822 12.1231 6.77059C13.51 6.70788 13.8994 6.69038 17.4533 6.69038C21.0073 6.69038 21.3719 6.69038 22.7821 6.77059C23.6139 6.78059 24.4378 6.93402 25.2175 7.22413C25.7847 7.44328 26.2998 7.77859 26.7298 8.20855C27.1597 8.6385 27.495 9.15361 27.7142 9.72079C28.0008 10.5009 28.1541 11.3237 28.1677 12.1548C28.2304 13.5416 28.2465 13.931 28.2465 17.485C28.2465 21.0375 28.2465 21.4195 28.1838 22.8137H28.1677V22.8123Z" fill="#BEFFF7"/>
</g>
</svg>
