<svg width="35" height="35" viewBox="0 0 35 35" fill="none" xmlns="http://www.w3.org/2000/svg">
<g id="Frame">
<path id="Vector" d="M25.8227 17.9269C25.6874 17.7914 25.5267 17.6839 25.3498 17.6105C25.1729 17.5371 24.9832 17.4993 24.7917 17.4993C24.6001 17.4993 24.4105 17.5371 24.2336 17.6105C24.0567 17.6839 23.8959 17.7914 23.7606 17.9269L21.4361 20.2515C20.3583 19.9307 18.3473 19.2015 17.0727 17.9269C15.7981 16.6524 15.069 14.6413 14.7481 13.5636L17.0727 11.239C17.2083 11.1037 17.3158 10.943 17.3892 10.7661C17.4625 10.5892 17.5003 10.3995 17.5003 10.208C17.5003 10.0164 17.4625 9.8268 17.3892 9.64988C17.3158 9.47296 17.2083 9.31225 17.0727 9.17693L11.2394 3.3436C11.1041 3.20805 10.9434 3.10052 10.7664 3.02715C10.5895 2.95378 10.3999 2.91602 10.2083 2.91602C10.0168 2.91602 9.82717 2.95378 9.65025 3.02715C9.47333 3.10052 9.31262 3.20805 9.1773 3.3436L5.2223 7.2986C4.66813 7.85277 4.35605 8.61402 4.36772 9.39131C4.40126 11.468 4.95105 18.6809 10.6356 24.3655C16.3202 30.0501 23.5331 30.5984 25.6113 30.6334H25.6521C26.4221 30.6334 27.1498 30.3301 27.7011 29.7788L31.6561 25.8238C31.7916 25.6885 31.8991 25.5278 31.9725 25.3509C32.0459 25.1739 32.0836 24.9843 32.0836 24.7928C32.0836 24.6012 32.0459 24.4116 31.9725 24.2347C31.8991 24.0578 31.7916 23.897 31.6561 23.7617L25.8227 17.9269ZM25.6375 27.7153C23.8175 27.6846 17.5904 27.1961 12.6977 22.3019C7.78897 17.3932 7.31355 11.1442 7.28438 9.36068L10.2083 6.43673L13.9796 10.208L12.094 12.0936C11.9226 12.2649 11.7965 12.4762 11.7273 12.7084C11.658 12.9406 11.6477 13.1864 11.6973 13.4236C11.7323 13.5913 12.5883 17.5682 15.0092 19.989C17.43 22.4099 21.4069 23.2659 21.5746 23.3009C21.8116 23.3519 22.0577 23.3424 22.2901 23.2733C22.5225 23.2043 22.7339 23.0778 22.9046 22.9057L24.7917 21.0201L28.5629 24.7913L25.6375 27.7153Z" fill="#BEFFF7"/>
</g>
</svg>
